<svg width="168" height="61" viewBox="0 0 168 61" fill="none" xmlns="http://www.w3.org/2000/svg">
<rect x="0.5" y="0.931641" width="59" height="59" rx="29.5" stroke="#09B451"/>
<path fill-rule="evenodd" clip-rule="evenodd" d="M35.9374 36.6814L26.5624 30.4314L35.9374 24.1814C36.0606 24.0993 36.1663 23.9938 36.2486 23.8709C36.331 23.7479 36.3883 23.61 36.4173 23.4649C36.4463 23.3198 36.4465 23.1704 36.4178 23.0253C36.389 22.8801 36.332 22.742 36.2499 22.6189C36.1679 22.4958 36.0624 22.3901 35.9394 22.3077C35.8165 22.2254 35.6785 22.1681 35.5334 22.1391C35.3883 22.11 35.2389 22.1099 35.0938 22.1386C34.9486 22.1673 34.8106 22.2243 34.6874 22.3064L24.0599 29.3914C23.8888 29.5056 23.7484 29.6602 23.6513 29.8417C23.5542 30.0231 23.5034 30.2257 23.5034 30.4314C23.5034 30.6372 23.5542 30.8398 23.6513 31.0212C23.7484 31.2026 23.8888 31.3573 24.0599 31.4714L34.6874 38.5564C34.8106 38.6385 34.9486 38.6955 35.0938 38.7242C35.2389 38.753 35.3883 38.7528 35.5334 38.7238C35.6785 38.6948 35.8165 38.6374 35.9394 38.5551C36.0624 38.4728 36.1679 38.367 36.2499 38.2439C36.332 38.1208 36.389 37.9827 36.4178 37.8376C36.4465 37.6924 36.4463 37.543 36.4173 37.398C36.3883 37.2529 36.331 37.1149 36.2486 36.992C36.1663 36.869 36.0606 36.7635 35.9374 36.6814Z" fill="#09B451"/>
<rect x="-0.5" y="0.5" width="59" height="59" rx="29.5" transform="matrix(-1 0 0 1 167 0.431641)" stroke="#09B451"/>
<path fill-rule="evenodd" clip-rule="evenodd" d="M132.063 36.6814L141.438 30.4314L132.063 24.1814C131.939 24.0993 131.834 23.9938 131.751 23.8709C131.669 23.7479 131.612 23.61 131.583 23.4649C131.554 23.3198 131.554 23.1704 131.582 23.0253C131.611 22.8801 131.668 22.742 131.75 22.6189C131.832 22.4958 131.938 22.3901 132.061 22.3077C132.184 22.2254 132.321 22.1681 132.467 22.1391C132.612 22.11 132.761 22.1099 132.906 22.1386C133.051 22.1673 133.189 22.2243 133.313 22.3064L143.94 29.3914C144.111 29.5056 144.252 29.6602 144.349 29.8417C144.446 30.0231 144.497 30.2257 144.497 30.4314C144.497 30.6372 144.446 30.8398 144.349 31.0212C144.252 31.2026 144.111 31.3573 143.94 31.4714L133.313 38.5564C133.189 38.6385 133.051 38.6955 132.906 38.7242C132.761 38.753 132.612 38.7528 132.467 38.7238C132.321 38.6948 132.184 38.6374 132.061 38.5551C131.938 38.4728 131.832 38.367 131.75 38.2439C131.668 38.1208 131.611 37.9827 131.582 37.8376C131.554 37.6924 131.554 37.543 131.583 37.398C131.612 37.2529 131.669 37.1149 131.751 36.992C131.834 36.869 131.939 36.7635 132.063 36.6814Z" fill="#09B451"/>
</svg>
