<svg width="252" height="72" viewBox="0 0 252 72" fill="none" xmlns="http://www.w3.org/2000/svg">
<path d="M23.2031 9.86719L18.8438 27H14.707L12.3867 18C12.3398 17.8281 12.2773 17.5664 12.1992 17.2148C12.1211 16.8633 12.0391 16.4805 11.9531 16.0664C11.8672 15.6445 11.7891 15.25 11.7188 14.8828C11.6562 14.5078 11.6133 14.2109 11.5898 13.9922C11.5664 14.2109 11.5195 14.5039 11.4492 14.8711C11.3867 15.2383 11.3125 15.6289 11.2266 16.043C11.1484 16.457 11.0703 16.8438 10.9922 17.2031C10.9141 17.5625 10.8516 17.8359 10.8047 18.0234L8.49609 27H4.37109L0 9.86719H3.57422L5.76562 19.2188C5.82812 19.5 5.89844 19.8359 5.97656 20.2266C6.0625 20.6172 6.14453 21.0273 6.22266 21.457C6.30859 21.8789 6.38281 22.2891 6.44531 22.6875C6.51562 23.0781 6.56641 23.418 6.59766 23.707C6.63672 23.4102 6.6875 23.0664 6.75 22.6758C6.8125 22.2773 6.87891 21.875 6.94922 21.4688C7.02734 21.0547 7.10547 20.6719 7.18359 20.3203C7.26172 19.9688 7.33203 19.6836 7.39453 19.4648L9.89062 9.86719H13.3242L15.8203 19.4648C15.875 19.6758 15.9375 19.9609 16.0078 20.3203C16.0859 20.6719 16.1641 21.0547 16.2422 21.4688C16.3203 21.8828 16.3906 22.2891 16.4531 22.6875C16.5234 23.0781 16.5742 23.418 16.6055 23.707C16.6602 23.3164 16.7344 22.8438 16.8281 22.2891C16.9297 21.7266 17.0352 21.168 17.1445 20.6133C17.2617 20.0586 17.3633 19.5938 17.4492 19.2188L19.6289 9.86719H23.2031ZM28.6523 8.76562V12.4805C28.6523 13.1289 28.6289 13.7461 28.582 14.332C28.543 14.918 28.5117 15.332 28.4883 15.5742H28.6758C28.957 15.1211 29.2891 14.7539 29.6719 14.4727C30.0625 14.1914 30.4922 13.9844 30.9609 13.8516C31.4297 13.7188 31.9336 13.6523 32.4727 13.6523C33.418 13.6523 34.2422 13.8203 34.9453 14.1562C35.6484 14.4844 36.1953 15.0039 36.5859 15.7148C36.9766 16.418 37.1719 17.332 37.1719 18.457V27H33.5977V19.3477C33.5977 18.4102 33.4258 17.7031 33.082 17.2266C32.7383 16.75 32.207 16.5117 31.4883 16.5117C30.7695 16.5117 30.2031 16.6797 29.7891 17.0156C29.375 17.3438 29.082 17.832 28.9102 18.4805C28.7383 19.1211 28.6523 19.9062 28.6523 20.8359V27H25.0781V8.76562H28.6523ZM46.2188 13.6289C47.9766 13.6289 49.3242 14.0117 50.2617 14.7773C51.1992 15.543 51.668 16.707 51.668 18.2695V27H49.1719L48.4805 25.2188H48.3867C48.0117 25.6875 47.6289 26.0703 47.2383 26.3672C46.8477 26.6641 46.3984 26.8828 45.8906 27.0234C45.3828 27.1641 44.7656 27.2344 44.0391 27.2344C43.2656 27.2344 42.5703 27.0859 41.9531 26.7891C41.3438 26.4922 40.8633 26.0391 40.5117 25.4297C40.1602 24.8125 39.9844 24.0312 39.9844 23.0859C39.9844 21.6953 40.4727 20.6719 41.4492 20.0156C42.4258 19.3516 43.8906 18.9844 45.8438 18.9141L48.1172 18.8438V18.2695C48.1172 17.582 47.9375 17.0781 47.5781 16.7578C47.2188 16.4375 46.7188 16.2773 46.0781 16.2773C45.4453 16.2773 44.8242 16.3672 44.2148 16.5469C43.6055 16.7266 42.9961 16.9531 42.3867 17.2266L41.2031 14.8125C41.8984 14.4453 42.6758 14.1562 43.5352 13.9453C44.4023 13.7344 45.2969 13.6289 46.2188 13.6289ZM48.1172 20.9297L46.7344 20.9766C45.5781 21.0078 44.7734 21.2148 44.3203 21.5977C43.875 21.9805 43.6523 22.4844 43.6523 23.1094C43.6523 23.6562 43.8125 24.0469 44.1328 24.2812C44.4531 24.5078 44.8711 24.6211 45.3867 24.6211C46.1523 24.6211 46.7969 24.3945 47.3203 23.9414C47.8516 23.4883 48.1172 22.8438 48.1172 22.0078V20.9297ZM60.8789 24.3867C61.2695 24.3867 61.6484 24.3477 62.0156 24.2695C62.3906 24.1914 62.7617 24.0938 63.1289 23.9766V26.6367C62.7461 26.8086 62.2695 26.9492 61.6992 27.0586C61.1367 27.1758 60.5195 27.2344 59.8477 27.2344C59.0664 27.2344 58.3633 27.1094 57.7383 26.8594C57.1211 26.6016 56.6328 26.1602 56.2734 25.5352C55.9219 24.9023 55.7461 24.0234 55.7461 22.8984V16.582H54.0352V15.0703L56.0039 13.875L57.0352 11.1094H59.3203V13.8984H62.9883V16.582H59.3203V22.8984C59.3203 23.3984 59.4609 23.7734 59.7422 24.0234C60.0312 24.2656 60.4102 24.3867 60.8789 24.3867ZM87.8555 18.4102C87.8555 19.7305 87.6914 20.9336 87.3633 22.0195C87.0352 23.0977 86.5352 24.0273 85.8633 24.8086C85.1992 25.5898 84.3555 26.1914 83.332 26.6133C82.3086 27.0273 81.0977 27.2344 79.6992 27.2344C78.3008 27.2344 77.0898 27.0273 76.0664 26.6133C75.043 26.1914 74.1953 25.5898 73.5234 24.8086C72.8594 24.0273 72.3633 23.0938 72.0352 22.0078C71.707 20.9219 71.543 19.7148 71.543 18.3867C71.543 16.6133 71.832 15.0703 72.4102 13.7578C72.9961 12.4375 73.8945 11.4141 75.1055 10.6875C76.3164 9.96094 77.8555 9.59766 79.7227 9.59766C81.582 9.59766 83.1094 9.96094 84.3047 10.6875C85.5078 11.4141 86.3984 12.4375 86.9766 13.7578C87.5625 15.0781 87.8555 16.6289 87.8555 18.4102ZM75.3516 18.4102C75.3516 19.6055 75.5 20.6367 75.7969 21.5039C76.1016 22.3633 76.5742 23.0273 77.2148 23.4961C77.8555 23.957 78.6836 24.1875 79.6992 24.1875C80.7305 24.1875 81.5664 23.957 82.207 23.4961C82.8477 23.0273 83.3125 22.3633 83.6016 21.5039C83.8984 20.6367 84.0469 19.6055 84.0469 18.4102C84.0469 16.6133 83.7109 15.1992 83.0391 14.168C82.3672 13.1367 81.2617 12.6211 79.7227 12.6211C78.6992 12.6211 77.8633 12.8555 77.2148 13.3242C76.5742 13.7852 76.1016 14.4492 75.7969 15.3164C75.5 16.1758 75.3516 17.207 75.3516 18.4102ZM103.148 13.8984V27H100.406L99.9258 25.3242H99.7383C99.457 25.7695 99.1055 26.1328 98.6836 26.4141C98.2617 26.6953 97.7969 26.9023 97.2891 27.0352C96.7812 27.168 96.2539 27.2344 95.707 27.2344C94.7695 27.2344 93.9531 27.0703 93.2578 26.7422C92.5625 26.4062 92.0195 25.8867 91.6289 25.1836C91.2461 24.4805 91.0547 23.5664 91.0547 22.4414V13.8984H94.6289V21.5508C94.6289 22.4883 94.7969 23.1953 95.1328 23.6719C95.4688 24.1484 96.0039 24.3867 96.7383 24.3867C97.4648 24.3867 98.0352 24.2227 98.4492 23.8945C98.8633 23.5586 99.1523 23.0703 99.3164 22.4297C99.4883 21.7812 99.5742 20.9922 99.5742 20.0625V13.8984H103.148ZM114.211 13.6523C114.391 13.6523 114.598 13.6641 114.832 13.6875C115.074 13.7031 115.27 13.7266 115.418 13.7578L115.148 17.1094C115.031 17.0703 114.863 17.043 114.645 17.0273C114.434 17.0039 114.25 16.9922 114.094 16.9922C113.633 16.9922 113.184 17.0508 112.746 17.168C112.316 17.2852 111.93 17.4766 111.586 17.7422C111.242 18 110.969 18.3438 110.766 18.7734C110.57 19.1953 110.473 19.7148 110.473 20.332V27H106.898V13.8984H109.605L110.133 16.1016H110.309C110.566 15.6562 110.887 15.25 111.27 14.8828C111.66 14.5078 112.102 14.2109 112.594 13.9922C113.094 13.7656 113.633 13.6523 114.211 13.6523ZM12.2695 58.2422C12.2695 59.2578 12.0234 60.1406 11.5312 60.8906C11.0391 61.6406 10.3203 62.2188 9.375 62.625C8.4375 63.0312 7.29688 63.2344 5.95312 63.2344C5.35938 63.2344 4.77734 63.1953 4.20703 63.1172C3.64453 63.0391 3.10156 62.9258 2.57812 62.7773C2.0625 62.6211 1.57031 62.4297 1.10156 62.2031V58.8281C1.91406 59.1875 2.75781 59.5117 3.63281 59.8008C4.50781 60.0898 5.375 60.2344 6.23438 60.2344C6.82812 60.2344 7.30469 60.1562 7.66406 60C8.03125 59.8438 8.29688 59.6289 8.46094 59.3555C8.625 59.082 8.70703 58.7695 8.70703 58.418C8.70703 57.9883 8.5625 57.6211 8.27344 57.3164C7.98438 57.0117 7.58594 56.7266 7.07812 56.4609C6.57812 56.1953 6.01172 55.9102 5.37891 55.6055C4.98047 55.418 4.54688 55.1914 4.07812 54.9258C3.60938 54.6523 3.16406 54.3203 2.74219 53.9297C2.32031 53.5391 1.97266 53.0664 1.69922 52.5117C1.43359 51.9492 1.30078 51.2773 1.30078 50.4961C1.30078 49.4727 1.53516 48.5977 2.00391 47.8711C2.47266 47.1445 3.14062 46.5898 4.00781 46.207C4.88281 45.8164 5.91406 45.6211 7.10156 45.6211C7.99219 45.6211 8.83984 45.7266 9.64453 45.9375C10.457 46.1406 11.3047 46.4375 12.1875 46.8281L11.0156 49.6523C10.2266 49.332 9.51953 49.0859 8.89453 48.9141C8.26953 48.7344 7.63281 48.6445 6.98438 48.6445C6.53125 48.6445 6.14453 48.7188 5.82422 48.8672C5.50391 49.0078 5.26172 49.2109 5.09766 49.4766C4.93359 49.7344 4.85156 50.0352 4.85156 50.3789C4.85156 50.7852 4.96875 51.1289 5.20312 51.4102C5.44531 51.6836 5.80469 51.9492 6.28125 52.207C6.76562 52.4648 7.36719 52.7656 8.08594 53.1094C8.96094 53.5234 9.70703 53.957 10.3242 54.4102C10.9492 54.8555 11.4297 55.3828 11.7656 55.9922C12.1016 56.5938 12.2695 57.3438 12.2695 58.2422ZM20.4609 49.6289C22.2188 49.6289 23.5664 50.0117 24.5039 50.7773C25.4414 51.543 25.9102 52.707 25.9102 54.2695V63H23.4141L22.7227 61.2188H22.6289C22.2539 61.6875 21.8711 62.0703 21.4805 62.3672C21.0898 62.6641 20.6406 62.8828 20.1328 63.0234C19.625 63.1641 19.0078 63.2344 18.2812 63.2344C17.5078 63.2344 16.8125 63.0859 16.1953 62.7891C15.5859 62.4922 15.1055 62.0391 14.7539 61.4297C14.4023 60.8125 14.2266 60.0312 14.2266 59.0859C14.2266 57.6953 14.7148 56.6719 15.6914 56.0156C16.668 55.3516 18.1328 54.9844 20.0859 54.9141L22.3594 54.8438V54.2695C22.3594 53.582 22.1797 53.0781 21.8203 52.7578C21.4609 52.4375 20.9609 52.2773 20.3203 52.2773C19.6875 52.2773 19.0664 52.3672 18.457 52.5469C17.8477 52.7266 17.2383 52.9531 16.6289 53.2266L15.4453 50.8125C16.1406 50.4453 16.918 50.1562 17.7773 49.9453C18.6445 49.7344 19.5391 49.6289 20.4609 49.6289ZM22.3594 56.9297L20.9766 56.9766C19.8203 57.0078 19.0156 57.2148 18.5625 57.5977C18.1172 57.9805 17.8945 58.4844 17.8945 59.1094C17.8945 59.6562 18.0547 60.0469 18.375 60.2812C18.6953 60.5078 19.1133 60.6211 19.6289 60.6211C20.3945 60.6211 21.0391 60.3945 21.5625 59.9414C22.0938 59.4883 22.3594 58.8438 22.3594 58.0078V56.9297ZM27.7266 49.8984H31.6406L34.1133 57.2695C34.1914 57.5039 34.2578 57.7422 34.3125 57.9844C34.3672 58.2266 34.4141 58.4766 34.4531 58.7344C34.4922 58.9922 34.5234 59.2617 34.5469 59.543H34.6172C34.6641 59.1211 34.7266 58.7266 34.8047 58.3594C34.8906 57.9922 34.9961 57.6289 35.1211 57.2695L37.5469 49.8984H41.3789L35.8359 64.6758C35.5 65.582 35.0625 66.3359 34.5234 66.9375C33.9844 67.5469 33.3633 68.0039 32.6602 68.3086C31.9648 68.6133 31.1992 68.7656 30.3633 68.7656C29.957 68.7656 29.6055 68.7422 29.3086 68.6953C29.0117 68.6562 28.7578 68.6133 28.5469 68.5664V65.7305C28.7109 65.7695 28.918 65.8047 29.168 65.8359C29.418 65.8672 29.6797 65.8828 29.9531 65.8828C30.4531 65.8828 30.8828 65.7773 31.2422 65.5664C31.6016 65.3555 31.9023 65.0703 32.1445 64.7109C32.3867 64.3594 32.5781 63.9727 32.7188 63.5508L32.9297 62.9062L27.7266 49.8984ZM60.2695 63L59.0273 58.9219H52.7812L51.5391 63H47.625L53.6719 45.7969H58.1133L64.1836 63H60.2695ZM58.1602 55.875L56.918 51.8906C56.8398 51.625 56.7344 51.2852 56.6016 50.8711C56.4766 50.4492 56.3477 50.0234 56.2148 49.5938C56.0898 49.1562 55.9883 48.7773 55.9102 48.457C55.832 48.7773 55.7227 49.1758 55.582 49.6523C55.4492 50.1211 55.3203 50.5664 55.1953 50.9883C55.0703 51.4102 54.9805 51.7109 54.9258 51.8906L53.6953 55.875H58.1602ZM69.6445 44.7656V49.0078C69.6445 49.5 69.6289 49.9883 69.5977 50.4727C69.5742 50.957 69.543 51.332 69.5039 51.5977H69.6445C69.9883 51.0586 70.457 50.6016 71.0508 50.2266C71.6445 49.8438 72.4141 49.6523 73.3594 49.6523C74.8281 49.6523 76.0195 50.2266 76.9336 51.375C77.8477 52.5234 78.3047 54.207 78.3047 56.4258C78.3047 57.918 78.0938 59.1719 77.6719 60.1875C77.25 61.1953 76.6602 61.957 75.9023 62.4727C75.1445 62.9805 74.2656 63.2344 73.2656 63.2344C72.3047 63.2344 71.5469 63.0625 70.9922 62.7188C70.4375 62.375 69.9883 61.9883 69.6445 61.5586H69.3984L68.8008 63H66.0703V44.7656H69.6445ZM72.2109 52.5117C71.5859 52.5117 71.0898 52.6406 70.7227 52.8984C70.3555 53.1562 70.0859 53.543 69.9141 54.0586C69.75 54.5742 69.6602 55.2266 69.6445 56.0156V56.4023C69.6445 57.6758 69.832 58.6523 70.207 59.332C70.582 60.0039 71.2656 60.3398 72.2578 60.3398C72.9922 60.3398 73.5742 60 74.0039 59.3203C74.4414 58.6406 74.6602 57.6602 74.6602 56.3789C74.6602 55.0977 74.4414 54.1328 74.0039 53.4844C73.5664 52.8359 72.9688 52.5117 72.2109 52.5117ZM93.1641 56.4258C93.1641 57.5195 93.0156 58.4883 92.7188 59.332C92.4297 60.1758 92.0039 60.8906 91.4414 61.4766C90.8867 62.0547 90.2148 62.4922 89.4258 62.7891C88.6445 63.0859 87.7617 63.2344 86.7773 63.2344C85.8555 63.2344 85.0078 63.0859 84.2344 62.7891C83.4688 62.4922 82.8008 62.0547 82.2305 61.4766C81.668 60.8906 81.2305 60.1758 80.918 59.332C80.6133 58.4883 80.4609 57.5195 80.4609 56.4258C80.4609 54.9727 80.7188 53.7422 81.2344 52.7344C81.75 51.7266 82.4844 50.9609 83.4375 50.4375C84.3906 49.9141 85.5273 49.6523 86.8477 49.6523C88.0742 49.6523 89.1602 49.9141 90.1055 50.4375C91.0586 50.9609 91.8047 51.7266 92.3438 52.7344C92.8906 53.7422 93.1641 54.9727 93.1641 56.4258ZM84.1055 56.4258C84.1055 57.2852 84.1992 58.0078 84.3867 58.5938C84.5742 59.1797 84.8672 59.6211 85.2656 59.918C85.6641 60.2148 86.1836 60.3633 86.8242 60.3633C87.457 60.3633 87.9688 60.2148 88.3594 59.918C88.7578 59.6211 89.0469 59.1797 89.2266 58.5938C89.4141 58.0078 89.5078 57.2852 89.5078 56.4258C89.5078 55.5586 89.4141 54.8398 89.2266 54.2695C89.0469 53.6914 88.7578 53.2578 88.3594 52.9688C87.9609 52.6797 87.4414 52.5352 86.8008 52.5352C85.8555 52.5352 85.168 52.8594 84.7383 53.5078C84.3164 54.1562 84.1055 55.1289 84.1055 56.4258ZM108.141 49.8984V63H105.398L104.918 61.3242H104.73C104.449 61.7695 104.098 62.1328 103.676 62.4141C103.254 62.6953 102.789 62.9023 102.281 63.0352C101.773 63.168 101.246 63.2344 100.699 63.2344C99.7617 63.2344 98.9453 63.0703 98.25 62.7422C97.5547 62.4062 97.0117 61.8867 96.6211 61.1836C96.2383 60.4805 96.0469 59.5664 96.0469 58.4414V49.8984H99.6211V57.5508C99.6211 58.4883 99.7891 59.1953 100.125 59.6719C100.461 60.1484 100.996 60.3867 101.73 60.3867C102.457 60.3867 103.027 60.2227 103.441 59.8945C103.855 59.5586 104.145 59.0703 104.309 58.4297C104.48 57.7812 104.566 56.9922 104.566 56.0625V49.8984H108.141ZM117.41 60.3867C117.801 60.3867 118.18 60.3477 118.547 60.2695C118.922 60.1914 119.293 60.0938 119.66 59.9766V62.6367C119.277 62.8086 118.801 62.9492 118.23 63.0586C117.668 63.1758 117.051 63.2344 116.379 63.2344C115.598 63.2344 114.895 63.1094 114.27 62.8594C113.652 62.6016 113.164 62.1602 112.805 61.5352C112.453 60.9023 112.277 60.0234 112.277 58.8984V52.582H110.566V51.0703L112.535 49.875L113.566 47.1094H115.852V49.8984H119.52V52.582H115.852V58.8984C115.852 59.3984 115.992 59.7734 116.273 60.0234C116.562 60.2656 116.941 60.3867 117.41 60.3867ZM142.781 45.8672V56.9531C142.781 58.1328 142.52 59.1992 141.996 60.1523C141.48 61.0977 140.695 61.8477 139.641 62.4023C138.594 62.957 137.273 63.2344 135.68 63.2344C133.414 63.2344 131.688 62.6562 130.5 61.5C129.312 60.3438 128.719 58.8125 128.719 56.9062V45.8672H132.34V56.3555C132.34 57.7695 132.629 58.7617 133.207 59.332C133.785 59.9023 134.641 60.1875 135.773 60.1875C136.57 60.1875 137.215 60.0508 137.707 59.7773C138.207 59.5039 138.574 59.082 138.809 58.5117C139.043 57.9414 139.16 57.2148 139.16 56.332V45.8672H142.781ZM155.836 59.1094C155.836 60 155.625 60.7539 155.203 61.3711C154.789 61.9805 154.168 62.4453 153.34 62.7656C152.512 63.0781 151.48 63.2344 150.246 63.2344C149.332 63.2344 148.547 63.1758 147.891 63.0586C147.242 62.9414 146.586 62.7461 145.922 62.4727V59.5195C146.633 59.8398 147.395 60.1055 148.207 60.3164C149.027 60.5195 149.746 60.6211 150.363 60.6211C151.059 60.6211 151.555 60.5195 151.852 60.3164C152.156 60.1055 152.309 59.832 152.309 59.4961C152.309 59.2773 152.246 59.082 152.121 58.9102C152.004 58.7305 151.746 58.5312 151.348 58.3125C150.949 58.0859 150.324 57.793 149.473 57.4336C148.652 57.0898 147.977 56.7422 147.445 56.3906C146.922 56.0391 146.531 55.625 146.273 55.1484C146.023 54.6641 145.898 54.0508 145.898 53.3086C145.898 52.0977 146.367 51.1875 147.305 50.5781C148.25 49.9609 149.512 49.6523 151.09 49.6523C151.902 49.6523 152.676 49.7344 153.41 49.8984C154.152 50.0625 154.914 50.3242 155.695 50.6836L154.617 53.2617C153.969 52.9805 153.355 52.75 152.777 52.5703C152.207 52.3906 151.625 52.3008 151.031 52.3008C150.508 52.3008 150.113 52.3711 149.848 52.5117C149.582 52.6523 149.449 52.8672 149.449 53.1562C149.449 53.3672 149.516 53.5547 149.648 53.7188C149.789 53.8828 150.055 54.0664 150.445 54.2695C150.844 54.4648 151.426 54.7188 152.191 55.0312C152.934 55.3359 153.578 55.6562 154.125 55.9922C154.672 56.3203 155.094 56.7305 155.391 57.2227C155.688 57.707 155.836 58.3359 155.836 59.1094Z" fill="black"/>
<path d="M134.426 22.2422C134.426 23.2578 134.18 24.1406 133.688 24.8906C133.195 25.6406 132.477 26.2188 131.531 26.625C130.594 27.0312 129.453 27.2344 128.109 27.2344C127.516 27.2344 126.934 27.1953 126.363 27.1172C125.801 27.0391 125.258 26.9258 124.734 26.7773C124.219 26.6211 123.727 26.4297 123.258 26.2031V22.8281C124.07 23.1875 124.914 23.5117 125.789 23.8008C126.664 24.0898 127.531 24.2344 128.391 24.2344C128.984 24.2344 129.461 24.1562 129.82 24C130.188 23.8438 130.453 23.6289 130.617 23.3555C130.781 23.082 130.863 22.7695 130.863 22.418C130.863 21.9883 130.719 21.6211 130.43 21.3164C130.141 21.0117 129.742 20.7266 129.234 20.4609C128.734 20.1953 128.168 19.9102 127.535 19.6055C127.137 19.418 126.703 19.1914 126.234 18.9258C125.766 18.6523 125.32 18.3203 124.898 17.9297C124.477 17.5391 124.129 17.0664 123.855 16.5117C123.59 15.9492 123.457 15.2773 123.457 14.4961C123.457 13.4727 123.691 12.5977 124.16 11.8711C124.629 11.1445 125.297 10.5898 126.164 10.207C127.039 9.81641 128.07 9.62109 129.258 9.62109C130.148 9.62109 130.996 9.72656 131.801 9.9375C132.613 10.1406 133.461 10.4375 134.344 10.8281L133.172 13.6523C132.383 13.332 131.676 13.0859 131.051 12.9141C130.426 12.7344 129.789 12.6445 129.141 12.6445C128.688 12.6445 128.301 12.7188 127.98 12.8672C127.66 13.0078 127.418 13.2109 127.254 13.4766C127.09 13.7344 127.008 14.0352 127.008 14.3789C127.008 14.7852 127.125 15.1289 127.359 15.4102C127.602 15.6836 127.961 15.9492 128.438 16.207C128.922 16.4648 129.523 16.7656 130.242 17.1094C131.117 17.5234 131.863 17.957 132.48 18.4102C133.105 18.8555 133.586 19.3828 133.922 19.9922C134.258 20.5938 134.426 21.3438 134.426 22.2422ZM142.77 24.3867C143.16 24.3867 143.539 24.3477 143.906 24.2695C144.281 24.1914 144.652 24.0938 145.02 23.9766V26.6367C144.637 26.8086 144.16 26.9492 143.59 27.0586C143.027 27.1758 142.41 27.2344 141.738 27.2344C140.957 27.2344 140.254 27.1094 139.629 26.8594C139.012 26.6016 138.523 26.1602 138.164 25.5352C137.812 24.9023 137.637 24.0234 137.637 22.8984V16.582H135.926V15.0703L137.895 13.875L138.926 11.1094H141.211V13.8984H144.879V16.582H141.211V22.8984C141.211 23.3984 141.352 23.7734 141.633 24.0234C141.922 24.2656 142.301 24.3867 142.77 24.3867ZM159.703 13.8984V27H156.961L156.48 25.3242H156.293C156.012 25.7695 155.66 26.1328 155.238 26.4141C154.816 26.6953 154.352 26.9023 153.844 27.0352C153.336 27.168 152.809 27.2344 152.262 27.2344C151.324 27.2344 150.508 27.0703 149.812 26.7422C149.117 26.4062 148.574 25.8867 148.184 25.1836C147.801 24.4805 147.609 23.5664 147.609 22.4414V13.8984H151.184V21.5508C151.184 22.4883 151.352 23.1953 151.688 23.6719C152.023 24.1484 152.559 24.3867 153.293 24.3867C154.02 24.3867 154.59 24.2227 155.004 23.8945C155.418 23.5586 155.707 23.0703 155.871 22.4297C156.043 21.7812 156.129 20.9922 156.129 20.0625V13.8984H159.703ZM167.602 27.2344C166.141 27.2344 164.949 26.6641 164.027 25.5234C163.113 24.375 162.656 22.6914 162.656 20.4727C162.656 18.2305 163.121 16.5352 164.051 15.3867C164.98 14.2305 166.195 13.6523 167.695 13.6523C168.32 13.6523 168.871 13.7383 169.348 13.9102C169.824 14.082 170.234 14.3125 170.578 14.6016C170.93 14.8906 171.227 15.2148 171.469 15.5742H171.586C171.539 15.3242 171.48 14.957 171.41 14.4727C171.348 13.9805 171.316 13.4766 171.316 12.9609V8.76562H174.902V27H172.16L171.469 25.3008H171.316C171.09 25.6602 170.805 25.9883 170.461 26.2852C170.125 26.5742 169.723 26.8047 169.254 26.9766C168.785 27.1484 168.234 27.2344 167.602 27.2344ZM168.855 24.3867C169.832 24.3867 170.52 24.0977 170.918 23.5195C171.324 22.9336 171.539 22.0547 171.562 20.8828V20.4961C171.562 19.2227 171.367 18.25 170.977 17.5781C170.586 16.8984 169.859 16.5586 168.797 16.5586C168.008 16.5586 167.391 16.8984 166.945 17.5781C166.5 18.2578 166.277 19.2383 166.277 20.5195C166.277 21.8008 166.5 22.7656 166.945 23.4141C167.398 24.0625 168.035 24.3867 168.855 24.3867ZM184.043 13.6523C185.254 13.6523 186.297 13.8867 187.172 14.3555C188.047 14.8164 188.723 15.4883 189.199 16.3711C189.676 17.2539 189.914 18.332 189.914 19.6055V21.3398H181.465C181.504 22.3477 181.805 23.1406 182.367 23.7188C182.938 24.2891 183.727 24.5742 184.734 24.5742C185.57 24.5742 186.336 24.4883 187.031 24.3164C187.727 24.1445 188.441 23.8867 189.176 23.543V26.3086C188.527 26.6289 187.848 26.8633 187.137 27.0117C186.434 27.1602 185.578 27.2344 184.57 27.2344C183.258 27.2344 182.094 26.9922 181.078 26.5078C180.07 26.0234 179.277 25.2852 178.699 24.293C178.129 23.3008 177.844 22.0508 177.844 20.543C177.844 19.0117 178.102 17.7383 178.617 16.7227C179.141 15.6992 179.867 14.9336 180.797 14.4258C181.727 13.9102 182.809 13.6523 184.043 13.6523ZM184.066 16.1953C183.371 16.1953 182.793 16.418 182.332 16.8633C181.879 17.3086 181.617 18.0078 181.547 18.9609H186.562C186.555 18.4297 186.457 17.957 186.27 17.543C186.09 17.1289 185.816 16.8008 185.449 16.5586C185.09 16.3164 184.629 16.1953 184.066 16.1953ZM200.262 13.6523C201.66 13.6523 202.785 14.0352 203.637 14.8008C204.488 15.5586 204.914 16.7773 204.914 18.457V27H201.34V19.3477C201.34 18.4102 201.168 17.7031 200.824 17.2266C200.488 16.75 199.957 16.5117 199.23 16.5117C198.137 16.5117 197.391 16.8828 196.992 17.625C196.594 18.3672 196.395 19.4375 196.395 20.8359V27H192.82V13.8984H195.551L196.031 15.5742H196.23C196.512 15.1211 196.859 14.7539 197.273 14.4727C197.695 14.1914 198.16 13.9844 198.668 13.8516C199.184 13.7188 199.715 13.6523 200.262 13.6523ZM214.113 24.3867C214.504 24.3867 214.883 24.3477 215.25 24.2695C215.625 24.1914 215.996 24.0938 216.363 23.9766V26.6367C215.98 26.8086 215.504 26.9492 214.934 27.0586C214.371 27.1758 213.754 27.2344 213.082 27.2344C212.301 27.2344 211.598 27.1094 210.973 26.8594C210.355 26.6016 209.867 26.1602 209.508 25.5352C209.156 24.9023 208.98 24.0234 208.98 22.8984V16.582H207.27V15.0703L209.238 13.875L210.27 11.1094H212.555V13.8984H216.223V16.582H212.555V22.8984C212.555 23.3984 212.695 23.7734 212.977 24.0234C213.266 24.2656 213.645 24.3867 214.113 24.3867ZM228.164 23.1094C228.164 24 227.953 24.7539 227.531 25.3711C227.117 25.9805 226.496 26.4453 225.668 26.7656C224.84 27.0781 223.809 27.2344 222.574 27.2344C221.66 27.2344 220.875 27.1758 220.219 27.0586C219.57 26.9414 218.914 26.7461 218.25 26.4727V23.5195C218.961 23.8398 219.723 24.1055 220.535 24.3164C221.355 24.5195 222.074 24.6211 222.691 24.6211C223.387 24.6211 223.883 24.5195 224.18 24.3164C224.484 24.1055 224.637 23.832 224.637 23.4961C224.637 23.2773 224.574 23.082 224.449 22.9102C224.332 22.7305 224.074 22.5312 223.676 22.3125C223.277 22.0859 222.652 21.793 221.801 21.4336C220.98 21.0898 220.305 20.7422 219.773 20.3906C219.25 20.0391 218.859 19.625 218.602 19.1484C218.352 18.6641 218.227 18.0508 218.227 17.3086C218.227 16.0977 218.695 15.1875 219.633 14.5781C220.578 13.9609 221.84 13.6523 223.418 13.6523C224.23 13.6523 225.004 13.7344 225.738 13.8984C226.48 14.0625 227.242 14.3242 228.023 14.6836L226.945 17.2617C226.297 16.9805 225.684 16.75 225.105 16.5703C224.535 16.3906 223.953 16.3008 223.359 16.3008C222.836 16.3008 222.441 16.3711 222.176 16.5117C221.91 16.6523 221.777 16.8672 221.777 17.1562C221.777 17.3672 221.844 17.5547 221.977 17.7188C222.117 17.8828 222.383 18.0664 222.773 18.2695C223.172 18.4648 223.754 18.7188 224.52 19.0312C225.262 19.3359 225.906 19.6562 226.453 19.9922C227 20.3203 227.422 20.7305 227.719 21.2227C228.016 21.707 228.164 22.3359 228.164 23.1094Z" fill="#09B451"/>
<path d="M122 37.0001C143 35.0002 190 30.5002 227 34.5003" stroke="#09B451" stroke-width="2" stroke-linecap="round"/>
</svg>
