<svg width="382" height="196" viewBox="0 0 382 196" fill="none" xmlns="http://www.w3.org/2000/svg">
<path d="M46.4062 17.166L37.6875 51.4316H29.4141L24.7734 33.4316C24.6797 33.0879 24.5547 32.5645 24.3984 31.8613C24.2422 31.1582 24.0781 30.3926 23.9062 29.5645C23.7344 28.7207 23.5781 27.9316 23.4375 27.1973C23.3125 26.4473 23.2266 25.8535 23.1797 25.416C23.1328 25.8535 23.0391 26.4395 22.8984 27.1738C22.7734 27.9082 22.625 28.6895 22.4531 29.5176C22.2969 30.3457 22.1406 31.1191 21.9844 31.8379C21.8281 32.5566 21.7031 33.1035 21.6094 33.4785L16.9922 51.4316H8.74219L0 17.166H7.14844L11.5312 35.8691C11.6562 36.4316 11.7969 37.1035 11.9531 37.8848C12.125 38.666 12.2891 39.4863 12.4453 40.3457C12.6172 41.1895 12.7656 42.0098 12.8906 42.8066C13.0312 43.5879 13.1328 44.2676 13.1953 44.8457C13.2734 44.252 13.375 43.5645 13.5 42.7832C13.625 41.9863 13.7578 41.1816 13.8984 40.3691C14.0547 39.541 14.2109 38.7754 14.3672 38.0723C14.5234 37.3691 14.6641 36.7988 14.7891 36.3613L19.7812 17.166H26.6484L31.6406 36.3613C31.75 36.7832 31.875 37.3535 32.0156 38.0723C32.1719 38.7754 32.3281 39.541 32.4844 40.3691C32.6406 41.1973 32.7812 42.0098 32.9062 42.8066C33.0469 43.5879 33.1484 44.2676 33.2109 44.8457C33.3203 44.0645 33.4688 43.1191 33.6562 42.0098C33.8594 40.8848 34.0703 39.7676 34.2891 38.6582C34.5234 37.5488 34.7266 36.6191 34.8984 35.8691L39.2578 17.166H46.4062ZM57.3047 14.9629V22.3926C57.3047 23.6895 57.2578 24.9238 57.1641 26.0957C57.0859 27.2676 57.0234 28.0957 56.9766 28.5801H57.3516C57.9141 27.6738 58.5781 26.9395 59.3438 26.377C60.125 25.8145 60.9844 25.4004 61.9219 25.1348C62.8594 24.8691 63.8672 24.7363 64.9453 24.7363C66.8359 24.7363 68.4844 25.0723 69.8906 25.7441C71.2969 26.4004 72.3906 27.4395 73.1719 28.8613C73.9531 30.2676 74.3438 32.0957 74.3438 34.3457V51.4316H67.1953V36.127C67.1953 34.252 66.8516 32.8379 66.1641 31.8848C65.4766 30.9316 64.4141 30.4551 62.9766 30.4551C61.5391 30.4551 60.4062 30.791 59.5781 31.4629C58.75 32.1191 58.1641 33.0957 57.8203 34.3926C57.4766 35.6738 57.3047 37.2441 57.3047 39.1035V51.4316H50.1562V14.9629H57.3047ZM92.4375 24.6895C95.9531 24.6895 98.6484 25.4551 100.523 26.9863C102.398 28.5176 103.336 30.8457 103.336 33.9707V51.4316H98.3438L96.9609 47.8691H96.7734C96.0234 48.8066 95.2578 49.5723 94.4766 50.166C93.6953 50.7598 92.7969 51.1973 91.7812 51.4785C90.7656 51.7598 89.5312 51.9004 88.0781 51.9004C86.5312 51.9004 85.1406 51.6035 83.9062 51.0098C82.6875 50.416 81.7266 49.5098 81.0234 48.291C80.3203 47.0566 79.9688 45.4941 79.9688 43.6035C79.9688 40.8223 80.9453 38.7754 82.8984 37.4629C84.8516 36.1348 87.7812 35.4004 91.6875 35.2598L96.2344 35.1191V33.9707C96.2344 32.5957 95.875 31.5879 95.1562 30.9473C94.4375 30.3066 93.4375 29.9863 92.1562 29.9863C90.8906 29.9863 89.6484 30.166 88.4297 30.5254C87.2109 30.8848 85.9922 31.3379 84.7734 31.8848L82.4062 27.0566C83.7969 26.3223 85.3516 25.7441 87.0703 25.3223C88.8047 24.9004 90.5938 24.6895 92.4375 24.6895ZM96.2344 39.291L93.4688 39.3848C91.1562 39.4473 89.5469 39.8613 88.6406 40.627C87.75 41.3926 87.3047 42.4004 87.3047 43.6504C87.3047 44.7441 87.625 45.5254 88.2656 45.9941C88.9062 46.4473 89.7422 46.6738 90.7734 46.6738C92.3047 46.6738 93.5938 46.2207 94.6406 45.3145C95.7031 44.4082 96.2344 43.1191 96.2344 41.4473V39.291ZM121.758 46.2051C122.539 46.2051 123.297 46.127 124.031 45.9707C124.781 45.8145 125.523 45.6191 126.258 45.3848V50.7051C125.492 51.0488 124.539 51.3301 123.398 51.5488C122.273 51.7832 121.039 51.9004 119.695 51.9004C118.133 51.9004 116.727 51.6504 115.477 51.1504C114.242 50.6348 113.266 49.752 112.547 48.502C111.844 47.2363 111.492 45.4785 111.492 43.2285V30.5957H108.07V27.5723L112.008 25.1816L114.07 19.6504H118.641V25.2285H125.977V30.5957H118.641V43.2285C118.641 44.2285 118.922 44.9785 119.484 45.4785C120.062 45.9629 120.82 46.2051 121.758 46.2051ZM175.711 34.252C175.711 36.8926 175.383 39.2988 174.727 41.4707C174.07 43.627 173.07 45.4863 171.727 47.0488C170.398 48.6113 168.711 49.8145 166.664 50.6582C164.617 51.4863 162.195 51.9004 159.398 51.9004C156.602 51.9004 154.18 51.4863 152.133 50.6582C150.086 49.8145 148.391 48.6113 147.047 47.0488C145.719 45.4863 144.727 43.6191 144.07 41.4473C143.414 39.2754 143.086 36.8613 143.086 34.2051C143.086 30.6582 143.664 27.5723 144.82 24.9473C145.992 22.3066 147.789 20.2598 150.211 18.8066C152.633 17.3535 155.711 16.627 159.445 16.627C163.164 16.627 166.219 17.3535 168.609 18.8066C171.016 20.2598 172.797 22.3066 173.953 24.9473C175.125 27.5879 175.711 30.6895 175.711 34.252ZM150.703 34.252C150.703 36.6426 151 38.7051 151.594 40.4395C152.203 42.1582 153.148 43.4863 154.43 44.4238C155.711 45.3457 157.367 45.8066 159.398 45.8066C161.461 45.8066 163.133 45.3457 164.414 44.4238C165.695 43.4863 166.625 42.1582 167.203 40.4395C167.797 38.7051 168.094 36.6426 168.094 34.252C168.094 30.6582 167.422 27.8301 166.078 25.7676C164.734 23.7051 162.523 22.6738 159.445 22.6738C157.398 22.6738 155.727 23.1426 154.43 24.0801C153.148 25.002 152.203 26.3301 151.594 28.0645C151 29.7832 150.703 31.8457 150.703 34.252ZM206.297 25.2285V51.4316H200.812L199.852 48.0801H199.477C198.914 48.9707 198.211 49.6973 197.367 50.2598C196.523 50.8223 195.594 51.2363 194.578 51.502C193.562 51.7676 192.508 51.9004 191.414 51.9004C189.539 51.9004 187.906 51.5723 186.516 50.916C185.125 50.2441 184.039 49.2051 183.258 47.7988C182.492 46.3926 182.109 44.5645 182.109 42.3145V25.2285H189.258V40.5332C189.258 42.4082 189.594 43.8223 190.266 44.7754C190.938 45.7285 192.008 46.2051 193.477 46.2051C194.93 46.2051 196.07 45.877 196.898 45.2207C197.727 44.5488 198.305 43.5723 198.633 42.291C198.977 40.9941 199.148 39.416 199.148 37.5566V25.2285H206.297ZM228.422 24.7363C228.781 24.7363 229.195 24.7598 229.664 24.8066C230.148 24.8379 230.539 24.8848 230.836 24.9473L230.297 31.6504C230.062 31.5723 229.727 31.5176 229.289 31.4863C228.867 31.4395 228.5 31.416 228.188 31.416C227.266 31.416 226.367 31.5332 225.492 31.7676C224.633 32.002 223.859 32.3848 223.172 32.916C222.484 33.4316 221.938 34.1191 221.531 34.9785C221.141 35.8223 220.945 36.8613 220.945 38.0957V51.4316H213.797V25.2285H219.211L220.266 29.6348H220.617C221.133 28.7441 221.773 27.9316 222.539 27.1973C223.32 26.4473 224.203 25.8535 225.188 25.416C226.188 24.9629 227.266 24.7363 228.422 24.7363ZM250.852 106.916C250.852 108.947 250.359 110.713 249.375 112.213C248.391 113.713 246.953 114.869 245.062 115.682C243.188 116.494 240.906 116.9 238.219 116.9C237.031 116.9 235.867 116.822 234.727 116.666C233.602 116.51 232.516 116.283 231.469 115.986C230.438 115.674 229.453 115.291 228.516 114.838V108.088C230.141 108.807 231.828 109.455 233.578 110.033C235.328 110.611 237.062 110.9 238.781 110.9C239.969 110.9 240.922 110.744 241.641 110.432C242.375 110.119 242.906 109.689 243.234 109.143C243.562 108.596 243.727 107.971 243.727 107.268C243.727 106.408 243.438 105.674 242.859 105.064C242.281 104.455 241.484 103.885 240.469 103.354C239.469 102.822 238.336 102.252 237.07 101.643C236.273 101.268 235.406 100.814 234.469 100.283C233.531 99.7363 232.641 99.0723 231.797 98.291C230.953 97.5098 230.258 96.5645 229.711 95.4551C229.18 94.3301 228.914 92.9863 228.914 91.4238C228.914 89.377 229.383 87.627 230.32 86.1738C231.258 84.7207 232.594 83.6113 234.328 82.8457C236.078 82.0645 238.141 81.6738 240.516 81.6738C242.297 81.6738 243.992 81.8848 245.602 82.3066C247.227 82.7129 248.922 83.3066 250.688 84.0879L248.344 89.7363C246.766 89.0957 245.352 88.6035 244.102 88.2598C242.852 87.9004 241.578 87.7207 240.281 87.7207C239.375 87.7207 238.602 87.8691 237.961 88.166C237.32 88.4473 236.836 88.8535 236.508 89.3848C236.18 89.9004 236.016 90.502 236.016 91.1895C236.016 92.002 236.25 92.6895 236.719 93.252C237.203 93.7988 237.922 94.3301 238.875 94.8457C239.844 95.3613 241.047 95.9629 242.484 96.6504C244.234 97.4785 245.727 98.3457 246.961 99.252C248.211 100.143 249.172 101.197 249.844 102.416C250.516 103.619 250.852 105.119 250.852 106.916ZM267.234 89.6895C270.75 89.6895 273.445 90.4551 275.32 91.9863C277.195 93.5176 278.133 95.8457 278.133 98.9707V116.432H273.141L271.758 112.869H271.57C270.82 113.807 270.055 114.572 269.273 115.166C268.492 115.76 267.594 116.197 266.578 116.479C265.562 116.76 264.328 116.9 262.875 116.9C261.328 116.9 259.938 116.604 258.703 116.01C257.484 115.416 256.523 114.51 255.82 113.291C255.117 112.057 254.766 110.494 254.766 108.604C254.766 105.822 255.742 103.775 257.695 102.463C259.648 101.135 262.578 100.4 266.484 100.26L271.031 100.119V98.9707C271.031 97.5957 270.672 96.5879 269.953 95.9473C269.234 95.3066 268.234 94.9863 266.953 94.9863C265.688 94.9863 264.445 95.166 263.227 95.5254C262.008 95.8848 260.789 96.3379 259.57 96.8848L257.203 92.0566C258.594 91.3223 260.148 90.7441 261.867 90.3223C263.602 89.9004 265.391 89.6895 267.234 89.6895ZM271.031 104.291L268.266 104.385C265.953 104.447 264.344 104.861 263.438 105.627C262.547 106.393 262.102 107.4 262.102 108.65C262.102 109.744 262.422 110.525 263.062 110.994C263.703 111.447 264.539 111.674 265.57 111.674C267.102 111.674 268.391 111.221 269.438 110.314C270.5 109.408 271.031 108.119 271.031 106.447V104.291ZM281.766 90.2285H289.594L294.539 104.971C294.695 105.439 294.828 105.916 294.938 106.4C295.047 106.885 295.141 107.385 295.219 107.9C295.297 108.416 295.359 108.955 295.406 109.518H295.547C295.641 108.674 295.766 107.885 295.922 107.15C296.094 106.416 296.305 105.689 296.555 104.971L301.406 90.2285H309.07L297.984 119.783C297.312 121.596 296.438 123.104 295.359 124.307C294.281 125.525 293.039 126.439 291.633 127.049C290.242 127.658 288.711 127.963 287.039 127.963C286.227 127.963 285.523 127.916 284.93 127.822C284.336 127.744 283.828 127.658 283.406 127.564V121.893C283.734 121.971 284.148 122.041 284.648 122.104C285.148 122.166 285.672 122.197 286.219 122.197C287.219 122.197 288.078 121.986 288.797 121.564C289.516 121.143 290.117 120.572 290.602 119.854C291.086 119.15 291.469 118.377 291.75 117.533L292.172 116.244L281.766 90.2285ZM25.2891 181.432L22.8047 173.275H10.3125L7.82812 181.432H0L12.0938 147.025H20.9766L33.1172 181.432H25.2891ZM21.0703 167.182L18.5859 159.213C18.4297 158.682 18.2188 158.002 17.9531 157.174C17.7031 156.33 17.4453 155.479 17.1797 154.619C16.9297 153.744 16.7266 152.986 16.5703 152.346C16.4141 152.986 16.1953 153.783 15.9141 154.736C15.6484 155.674 15.3906 156.564 15.1406 157.408C14.8906 158.252 14.7109 158.854 14.6016 159.213L12.1406 167.182H21.0703ZM44.0391 144.963V153.447C44.0391 154.432 44.0078 155.408 43.9453 156.377C43.8984 157.346 43.8359 158.096 43.7578 158.627H44.0391C44.7266 157.549 45.6641 156.635 46.8516 155.885C48.0391 155.119 49.5781 154.736 51.4688 154.736C54.4062 154.736 56.7891 155.885 58.6172 158.182C60.4453 160.479 61.3594 163.846 61.3594 168.283C61.3594 171.268 60.9375 173.775 60.0938 175.807C59.25 177.822 58.0703 179.346 56.5547 180.377C55.0391 181.393 53.2812 181.9 51.2812 181.9C49.3594 181.9 47.8438 181.557 46.7344 180.869C45.625 180.182 44.7266 179.408 44.0391 178.549H43.5469L42.3516 181.432H36.8906V144.963H44.0391ZM49.1719 160.455C47.9219 160.455 46.9297 160.713 46.1953 161.229C45.4609 161.744 44.9219 162.518 44.5781 163.549C44.25 164.58 44.0703 165.885 44.0391 167.463V168.236C44.0391 170.783 44.4141 172.736 45.1641 174.096C45.9141 175.439 47.2812 176.111 49.2656 176.111C50.7344 176.111 51.8984 175.432 52.7578 174.072C53.6328 172.713 54.0703 170.752 54.0703 168.189C54.0703 165.627 53.6328 163.697 52.7578 162.4C51.8828 161.104 50.6875 160.455 49.1719 160.455ZM91.0781 168.283C91.0781 170.471 90.7812 172.408 90.1875 174.096C89.6094 175.783 88.7578 177.213 87.6328 178.385C86.5234 179.541 85.1797 180.416 83.6016 181.01C82.0391 181.604 80.2734 181.9 78.3047 181.9C76.4609 181.9 74.7656 181.604 73.2188 181.01C71.6875 180.416 70.3516 179.541 69.2109 178.385C68.0859 177.213 67.2109 175.783 66.5859 174.096C65.9766 172.408 65.6719 170.471 65.6719 168.283C65.6719 165.377 66.1875 162.916 67.2188 160.9C68.25 158.885 69.7188 157.354 71.625 156.307C73.5312 155.26 75.8047 154.736 78.4453 154.736C80.8984 154.736 83.0703 155.26 84.9609 156.307C86.8672 157.354 88.3594 158.885 89.4375 160.9C90.5312 162.916 91.0781 165.377 91.0781 168.283ZM72.9609 168.283C72.9609 170.002 73.1484 171.447 73.5234 172.619C73.8984 173.791 74.4844 174.674 75.2812 175.268C76.0781 175.861 77.1172 176.158 78.3984 176.158C79.6641 176.158 80.6875 175.861 81.4688 175.268C82.2656 174.674 82.8438 173.791 83.2031 172.619C83.5781 171.447 83.7656 170.002 83.7656 168.283C83.7656 166.549 83.5781 165.111 83.2031 163.971C82.8438 162.814 82.2656 161.947 81.4688 161.369C80.6719 160.791 79.6328 160.502 78.3516 160.502C76.4609 160.502 75.0859 161.15 74.2266 162.447C73.3828 163.744 72.9609 165.689 72.9609 168.283ZM121.031 155.229V181.432H115.547L114.586 178.08H114.211C113.648 178.971 112.945 179.697 112.102 180.26C111.258 180.822 110.328 181.236 109.312 181.502C108.297 181.768 107.242 181.9 106.148 181.9C104.273 181.9 102.641 181.572 101.25 180.916C99.8594 180.244 98.7734 179.205 97.9922 177.799C97.2266 176.393 96.8438 174.564 96.8438 172.314V155.229H103.992V170.533C103.992 172.408 104.328 173.822 105 174.775C105.672 175.729 106.742 176.205 108.211 176.205C109.664 176.205 110.805 175.877 111.633 175.221C112.461 174.549 113.039 173.572 113.367 172.291C113.711 170.994 113.883 169.416 113.883 167.557V155.229H121.031ZM139.57 176.205C140.352 176.205 141.109 176.127 141.844 175.971C142.594 175.814 143.336 175.619 144.07 175.385V180.705C143.305 181.049 142.352 181.33 141.211 181.549C140.086 181.783 138.852 181.9 137.508 181.9C135.945 181.9 134.539 181.65 133.289 181.15C132.055 180.635 131.078 179.752 130.359 178.502C129.656 177.236 129.305 175.479 129.305 173.229V160.596H125.883V157.572L129.82 155.182L131.883 149.65H136.453V155.229H143.789V160.596H136.453V173.229C136.453 174.229 136.734 174.979 137.297 175.479C137.875 175.963 138.633 176.205 139.57 176.205ZM190.312 147.166V169.338C190.312 171.697 189.789 173.83 188.742 175.736C187.711 177.627 186.141 179.127 184.031 180.236C181.938 181.346 179.297 181.9 176.109 181.9C171.578 181.9 168.125 180.744 165.75 178.432C163.375 176.119 162.188 173.057 162.188 169.244V147.166H169.43V168.143C169.43 170.971 170.008 172.955 171.164 174.096C172.32 175.236 174.031 175.807 176.297 175.807C177.891 175.807 179.18 175.533 180.164 174.986C181.164 174.439 181.898 173.596 182.367 172.455C182.836 171.314 183.07 169.861 183.07 168.096V147.166H190.312ZM216.422 173.65C216.422 175.432 216 176.939 215.156 178.174C214.328 179.393 213.086 180.322 211.43 180.963C209.773 181.588 207.711 181.9 205.242 181.9C203.414 181.9 201.844 181.783 200.531 181.549C199.234 181.314 197.922 180.924 196.594 180.377V174.471C198.016 175.111 199.539 175.643 201.164 176.064C202.805 176.471 204.242 176.674 205.477 176.674C206.867 176.674 207.859 176.471 208.453 176.064C209.062 175.643 209.367 175.096 209.367 174.424C209.367 173.986 209.242 173.596 208.992 173.252C208.758 172.893 208.242 172.494 207.445 172.057C206.648 171.604 205.398 171.018 203.695 170.299C202.055 169.611 200.703 168.916 199.641 168.213C198.594 167.51 197.812 166.682 197.297 165.729C196.797 164.76 196.547 163.533 196.547 162.049C196.547 159.627 197.484 157.807 199.359 156.588C201.25 155.354 203.773 154.736 206.93 154.736C208.555 154.736 210.102 154.9 211.57 155.229C213.055 155.557 214.578 156.08 216.141 156.799L213.984 161.955C212.688 161.393 211.461 160.932 210.305 160.572C209.164 160.213 208 160.033 206.812 160.033C205.766 160.033 204.977 160.174 204.445 160.455C203.914 160.736 203.648 161.166 203.648 161.744C203.648 162.166 203.781 162.541 204.047 162.869C204.328 163.197 204.859 163.564 205.641 163.971C206.438 164.361 207.602 164.869 209.133 165.494C210.617 166.104 211.906 166.744 213 167.416C214.094 168.072 214.938 168.893 215.531 169.877C216.125 170.846 216.422 172.104 216.422 173.65Z" fill="black"/>
<path d="M24.5391 106.916C24.5391 108.947 24.0469 110.713 23.0625 112.213C22.0781 113.713 20.6406 114.869 18.75 115.682C16.875 116.494 14.5938 116.9 11.9062 116.9C10.7188 116.9 9.55469 116.822 8.41406 116.666C7.28906 116.51 6.20312 116.283 5.15625 115.986C4.125 115.674 3.14062 115.291 2.20312 114.838V108.088C3.82812 108.807 5.51562 109.455 7.26562 110.033C9.01562 110.611 10.75 110.9 12.4688 110.9C13.6562 110.9 14.6094 110.744 15.3281 110.432C16.0625 110.119 16.5938 109.689 16.9219 109.143C17.25 108.596 17.4141 107.971 17.4141 107.268C17.4141 106.408 17.125 105.674 16.5469 105.064C15.9688 104.455 15.1719 103.885 14.1562 103.354C13.1562 102.822 12.0234 102.252 10.7578 101.643C9.96094 101.268 9.09375 100.814 8.15625 100.283C7.21875 99.7363 6.32812 99.0723 5.48438 98.291C4.64062 97.5098 3.94531 96.5645 3.39844 95.4551C2.86719 94.3301 2.60156 92.9863 2.60156 91.4238C2.60156 89.377 3.07031 87.627 4.00781 86.1738C4.94531 84.7207 6.28125 83.6113 8.01562 82.8457C9.76562 82.0645 11.8281 81.6738 14.2031 81.6738C15.9844 81.6738 17.6797 81.8848 19.2891 82.3066C20.9141 82.7129 22.6094 83.3066 24.375 84.0879L22.0312 89.7363C20.4531 89.0957 19.0391 88.6035 17.7891 88.2598C16.5391 87.9004 15.2656 87.7207 13.9688 87.7207C13.0625 87.7207 12.2891 87.8691 11.6484 88.166C11.0078 88.4473 10.5234 88.8535 10.1953 89.3848C9.86719 89.9004 9.70312 90.502 9.70312 91.1895C9.70312 92.002 9.9375 92.6895 10.4062 93.252C10.8906 93.7988 11.6094 94.3301 12.5625 94.8457C13.5312 95.3613 14.7344 95.9629 16.1719 96.6504C17.9219 97.4785 19.4141 98.3457 20.6484 99.252C21.8984 100.143 22.8594 101.197 23.5312 102.416C24.2031 103.619 24.5391 105.119 24.5391 106.916ZM41.2266 111.205C42.0078 111.205 42.7656 111.127 43.5 110.971C44.25 110.814 44.9922 110.619 45.7266 110.385V115.705C44.9609 116.049 44.0078 116.33 42.8672 116.549C41.7422 116.783 40.5078 116.9 39.1641 116.9C37.6016 116.9 36.1953 116.65 34.9453 116.15C33.7109 115.635 32.7344 114.752 32.0156 113.502C31.3125 112.236 30.9609 110.479 30.9609 108.229V95.5957H27.5391V92.5723L31.4766 90.1816L33.5391 84.6504H38.1094V90.2285H45.4453V95.5957H38.1094V108.229C38.1094 109.229 38.3906 109.979 38.9531 110.479C39.5312 110.963 40.2891 111.205 41.2266 111.205ZM75.0938 90.2285V116.432H69.6094L68.6484 113.08H68.2734C67.7109 113.971 67.0078 114.697 66.1641 115.26C65.3203 115.822 64.3906 116.236 63.375 116.502C62.3594 116.768 61.3047 116.9 60.2109 116.9C58.3359 116.9 56.7031 116.572 55.3125 115.916C53.9219 115.244 52.8359 114.205 52.0547 112.799C51.2891 111.393 50.9062 109.564 50.9062 107.314V90.2285H58.0547V105.533C58.0547 107.408 58.3906 108.822 59.0625 109.775C59.7344 110.729 60.8047 111.205 62.2734 111.205C63.7266 111.205 64.8672 110.877 65.6953 110.221C66.5234 109.549 67.1016 108.572 67.4297 107.291C67.7734 105.994 67.9453 104.416 67.9453 102.557V90.2285H75.0938ZM90.8906 116.9C87.9688 116.9 85.5859 115.76 83.7422 113.479C81.9141 111.182 81 107.814 81 103.377C81 98.8926 81.9297 95.502 83.7891 93.2051C85.6484 90.8926 88.0781 89.7363 91.0781 89.7363C92.3281 89.7363 93.4297 89.9082 94.3828 90.252C95.3359 90.5957 96.1562 91.0566 96.8438 91.6348C97.5469 92.2129 98.1406 92.8613 98.625 93.5801H98.8594C98.7656 93.0801 98.6484 92.3457 98.5078 91.377C98.3828 90.3926 98.3203 89.3848 98.3203 88.3535V79.9629H105.492V116.432H100.008L98.625 113.033H98.3203C97.8672 113.752 97.2969 114.408 96.6094 115.002C95.9375 115.58 95.1328 116.041 94.1953 116.385C93.2578 116.729 92.1562 116.9 90.8906 116.9ZM93.3984 111.205C95.3516 111.205 96.7266 110.627 97.5234 109.471C98.3359 108.299 98.7656 106.541 98.8125 104.197V103.424C98.8125 100.877 98.4219 98.9316 97.6406 97.5879C96.8594 96.2285 95.4062 95.5488 93.2812 95.5488C91.7031 95.5488 90.4688 96.2285 89.5781 97.5879C88.6875 98.9473 88.2422 100.908 88.2422 103.471C88.2422 106.033 88.6875 107.963 89.5781 109.26C90.4844 110.557 91.7578 111.205 93.3984 111.205ZM123.773 89.7363C126.195 89.7363 128.281 90.2051 130.031 91.1426C131.781 92.0645 133.133 93.4082 134.086 95.1738C135.039 96.9395 135.516 99.0957 135.516 101.643V105.111H118.617C118.695 107.127 119.297 108.713 120.422 109.869C121.562 111.01 123.141 111.58 125.156 111.58C126.828 111.58 128.359 111.408 129.75 111.064C131.141 110.721 132.57 110.205 134.039 109.518V115.049C132.742 115.689 131.383 116.158 129.961 116.455C128.555 116.752 126.844 116.9 124.828 116.9C122.203 116.9 119.875 116.416 117.844 115.447C115.828 114.479 114.242 113.002 113.086 111.018C111.945 109.033 111.375 106.533 111.375 103.518C111.375 100.455 111.891 97.9082 112.922 95.877C113.969 93.8301 115.422 92.2988 117.281 91.2832C119.141 90.252 121.305 89.7363 123.773 89.7363ZM123.82 94.8223C122.43 94.8223 121.273 95.2676 120.352 96.1582C119.445 97.0488 118.922 98.4473 118.781 100.354H128.812C128.797 99.291 128.602 98.3457 128.227 97.5176C127.867 96.6895 127.32 96.0332 126.586 95.5488C125.867 95.0645 124.945 94.8223 123.82 94.8223ZM156.211 89.7363C159.008 89.7363 161.258 90.502 162.961 92.0332C164.664 93.5488 165.516 95.9863 165.516 99.3457V116.432H158.367V101.127C158.367 99.252 158.023 97.8379 157.336 96.8848C156.664 95.9316 155.602 95.4551 154.148 95.4551C151.961 95.4551 150.469 96.1973 149.672 97.6816C148.875 99.166 148.477 101.307 148.477 104.104V116.432H141.328V90.2285H146.789L147.75 93.5801H148.148C148.711 92.6738 149.406 91.9395 150.234 91.377C151.078 90.8145 152.008 90.4004 153.023 90.1348C154.055 89.8691 155.117 89.7363 156.211 89.7363ZM183.914 111.205C184.695 111.205 185.453 111.127 186.188 110.971C186.938 110.814 187.68 110.619 188.414 110.385V115.705C187.648 116.049 186.695 116.33 185.555 116.549C184.43 116.783 183.195 116.9 181.852 116.9C180.289 116.9 178.883 116.65 177.633 116.15C176.398 115.635 175.422 114.752 174.703 113.502C174 112.236 173.648 110.479 173.648 108.229V95.5957H170.227V92.5723L174.164 90.1816L176.227 84.6504H180.797V90.2285H188.133V95.5957H180.797V108.229C180.797 109.229 181.078 109.979 181.641 110.479C182.219 110.963 182.977 111.205 183.914 111.205ZM212.016 108.65C212.016 110.432 211.594 111.939 210.75 113.174C209.922 114.393 208.68 115.322 207.023 115.963C205.367 116.588 203.305 116.9 200.836 116.9C199.008 116.9 197.438 116.783 196.125 116.549C194.828 116.314 193.516 115.924 192.188 115.377V109.471C193.609 110.111 195.133 110.643 196.758 111.064C198.398 111.471 199.836 111.674 201.07 111.674C202.461 111.674 203.453 111.471 204.047 111.064C204.656 110.643 204.961 110.096 204.961 109.424C204.961 108.986 204.836 108.596 204.586 108.252C204.352 107.893 203.836 107.494 203.039 107.057C202.242 106.604 200.992 106.018 199.289 105.299C197.648 104.611 196.297 103.916 195.234 103.213C194.188 102.51 193.406 101.682 192.891 100.729C192.391 99.7598 192.141 98.5332 192.141 97.0488C192.141 94.627 193.078 92.8066 194.953 91.5879C196.844 90.3535 199.367 89.7363 202.523 89.7363C204.148 89.7363 205.695 89.9004 207.164 90.2285C208.648 90.5566 210.172 91.0801 211.734 91.7988L209.578 96.9551C208.281 96.3926 207.055 95.9316 205.898 95.5723C204.758 95.2129 203.594 95.0332 202.406 95.0332C201.359 95.0332 200.57 95.1738 200.039 95.4551C199.508 95.7363 199.242 96.166 199.242 96.7441C199.242 97.166 199.375 97.541 199.641 97.8691C199.922 98.1973 200.453 98.5645 201.234 98.9707C202.031 99.3613 203.195 99.8691 204.727 100.494C206.211 101.104 207.5 101.744 208.594 102.416C209.688 103.072 210.531 103.893 211.125 104.877C211.719 105.846 212.016 107.104 212.016 108.65Z" fill="#09B451"/>
<path d="M0 132.331C68 127.164 181 120.984 210.5 128.484" stroke="#09B451" stroke-width="4" stroke-linecap="round"/>
</svg>
